<svg width="152" height="610" viewBox="0 0 152 610" fill="none" xmlns="http://www.w3.org/2000/svg">
<path d="M149.532 610L149.532 558.145C149.532 512.21 121.97 482.812 75.6915 482.812C29.4127 482.812 2.4682 512.21 2.4682 558.145L2.46821 610L149.532 610ZM118.679 574.273L33.3207 574.273L33.3207 559.574C33.3207 535.484 47.7185 519.764 75.6915 519.764C103.87 519.764 118.679 534.871 118.679 559.574L118.679 574.273Z" fill="#FFD600"/>
<path d="M75.0744 467.438C118.268 467.438 152 436.406 152 391.084C152 345.762 118.268 314.73 75.0744 314.73C32.9093 314.73 -1.15502e-05 345.762 -9.56913e-06 391.084C-7.58802e-06 436.406 32.9093 467.438 75.0744 467.438ZM75.0744 430.486C51.0095 430.486 32.9093 414.153 32.9093 391.084C32.9093 368.014 51.0095 351.682 75.0744 351.682C100.168 351.682 119.091 368.014 119.091 391.084C119.091 414.153 100.168 430.486 75.0744 430.486Z" fill="#FFD600"/>
<path d="M75.0744 299.967C118.268 299.967 152 268.936 152 223.613C152 178.291 118.268 147.259 75.0744 147.259C32.9093 147.259 -1.88706e-05 178.291 -1.68895e-05 223.613C-1.49084e-05 268.936 32.9093 299.967 75.0744 299.967ZM75.0744 263.015C51.0095 263.015 32.9093 246.683 32.9093 223.613C32.9093 200.544 51.0095 184.211 75.0744 184.211C100.168 184.211 119.091 200.544 119.091 223.613C119.091 246.683 100.168 263.015 75.0744 263.015Z" fill="#FFD600"/>
<path d="M149.532 124.534L149.532 88.8073L91.9405 88.8073L91.9405 35.7271L149.532 35.7271L149.532 -6.53624e-06L2.46818 -1.07889e-07L2.46818 35.7271L61.2936 35.7271L61.2936 88.8073L2.46818 88.8073L2.46818 124.534L149.532 124.534Z" fill="#FFD600"/>
</svg>
