<svg width="150" height="150" viewBox="0 0 150 150" fill="none" xmlns="http://www.w3.org/2000/svg">
<circle cx="75" cy="75" r="74" stroke="black" stroke-width="2"/>
<path d="M31 50H29V32H44.2V34H31V50Z" fill="#FFD600"/>
<path d="M119.7 50H117.7V34H104.5V32H119.7V50Z" fill="#FFD600"/>
<path d="M119.7 118.4H104.5V116.4H117.7V100.4H119.7V118.4Z" fill="#FFD600"/>
<path d="M44.2 118.4H29V100.4H31V116.4H44.2V118.4Z" fill="#FFD600"/>
<mask id="path-6-outside-1" maskUnits="userSpaceOnUse" x="46" y="46" width="58" height="58" fill="black">
<rect fill="white" x="46" y="46" width="58" height="58"/>
<path d="M47.5292 47.0029C47.3784 47.0316 47.2426 47.1128 47.1458 47.2319C47.049 47.351 46.9974 47.5005 47.0001 47.654V65.8865C47.0001 66.0592 47.0687 66.2248 47.1908 66.3469C47.313 66.4691 47.4786 66.5377 47.6513 66.5377H56.1163V83.4678H47.6513C47.4786 83.4679 47.313 83.5365 47.1908 83.6586C47.0687 83.7807 47.0001 83.9463 47.0001 84.119V102.352C47.0001 102.524 47.0687 102.69 47.1908 102.812C47.313 102.934 47.4786 103.003 47.6513 103.003H65.8838C66.0564 103.003 66.2221 102.934 66.3442 102.812C66.4663 102.69 66.5349 102.524 66.5349 102.352V93.8864H83.4651V102.352C83.4651 102.524 83.5337 102.69 83.6558 102.812C83.7779 102.934 83.9436 103.003 84.1162 103.003H98.4418C98.5281 103.004 98.6137 102.988 98.6938 102.956C98.7739 102.924 98.8467 102.876 98.9082 102.815C98.9697 102.755 99.0184 102.682 99.0518 102.603C99.0851 102.523 99.1022 102.438 99.1022 102.352C99.1022 102.265 99.0851 102.18 99.0518 102.1C99.0184 102.021 98.9697 101.948 98.9082 101.888C98.8467 101.827 98.7739 101.779 98.6938 101.747C98.6137 101.715 98.5281 101.699 98.4418 101.7H84.7674V84.7702H101.698V102.352C101.697 102.444 101.716 102.536 101.754 102.621C101.791 102.706 101.847 102.782 101.916 102.843C101.986 102.905 102.067 102.951 102.156 102.979C102.245 103.006 102.338 103.014 102.43 103.003C102.588 102.983 102.734 102.905 102.839 102.785C102.944 102.665 103.001 102.511 103 102.352V84.119C103 83.9463 102.931 83.7807 102.809 83.6586C102.687 83.5365 102.521 83.4679 102.349 83.4678H93.8836V66.5377H102.349C102.521 66.5377 102.687 66.4691 102.809 66.3469C102.931 66.2248 103 66.0592 103 65.8865V47.654C103.003 47.5005 102.951 47.351 102.854 47.2319C102.757 47.1128 102.622 47.0316 102.471 47.0029C102.43 46.999 102.389 46.999 102.349 47.0029H84.1162C83.9436 47.0029 83.7779 47.0715 83.6558 47.1936C83.5337 47.3157 83.4651 47.4813 83.4651 47.654V56.1191H66.5349V47.654C66.5349 47.4813 66.4663 47.3157 66.3442 47.1936C66.2221 47.0715 66.0564 47.0029 65.8838 47.0029H47.6513C47.6107 46.999 47.5698 46.999 47.5292 47.0029ZM48.3024 48.3052H65.2326V65.2354H48.3024V48.3052ZM84.7674 48.3052H101.698V65.2354H84.7674V48.3052ZM54.6309 53.5145C54.0256 53.5145 53.5117 54.008 53.5117 54.6133V58.9069C53.5117 59.5122 54.0256 60.0261 54.6309 60.0261H58.9041C59.5094 60.0261 60.0233 59.5122 60.0233 58.9069V54.6133C60.0233 54.008 59.5094 53.5145 58.9041 53.5145H54.6309ZM91.0959 53.5145C90.4906 53.5145 89.9767 54.008 89.9767 54.6133V58.9069C89.9767 59.5122 90.4906 60.0261 91.0959 60.0261H95.3691C95.9744 60.0261 96.4883 59.5122 96.4883 58.9069V54.6133C96.4883 54.008 95.9744 53.5145 95.3691 53.5145H91.0959ZM54.814 54.8168H58.721V58.7238H54.814V54.8168ZM91.279 54.8168H95.186V58.7238H91.279V54.8168ZM66.5349 57.4214H83.4651V65.8865C83.4651 66.0592 83.5337 66.2248 83.6558 66.3469C83.7779 66.4691 83.9436 66.5377 84.1162 66.5377H92.5813V83.4678H84.1162C83.9436 83.4679 83.7779 83.5365 83.6558 83.6586C83.5337 83.7807 83.4651 83.9463 83.4651 84.119V92.5841H66.5349V84.119C66.5349 83.9463 66.4663 83.7807 66.3442 83.6586C66.2221 83.5365 66.0564 83.4679 65.8838 83.4678H57.4187V66.5377H65.8838C66.0564 66.5377 66.2221 66.4691 66.3442 66.3469C66.4663 66.2248 66.5349 66.0592 66.5349 65.8865V57.4214ZM48.3024 84.7702H65.2326V101.7H48.3024V84.7702ZM54.6309 89.9795C54.0256 89.9795 53.5117 90.473 53.5117 91.0783V95.3719C53.5117 95.9772 54.0256 96.4911 54.6309 96.4911H58.9041C59.5094 96.4911 60.0233 95.9772 60.0233 95.3719V91.0783C60.0233 90.473 59.5094 89.9795 58.9041 89.9795H54.6309ZM54.814 91.2818H58.721V95.1887H54.814V91.2818Z"/>
</mask>
<path d="M47.5292 47.0029C47.3784 47.0316 47.2426 47.1128 47.1458 47.2319C47.049 47.351 46.9974 47.5005 47.0001 47.654V65.8865C47.0001 66.0592 47.0687 66.2248 47.1908 66.3469C47.313 66.4691 47.4786 66.5377 47.6513 66.5377H56.1163V83.4678H47.6513C47.4786 83.4679 47.313 83.5365 47.1908 83.6586C47.0687 83.7807 47.0001 83.9463 47.0001 84.119V102.352C47.0001 102.524 47.0687 102.69 47.1908 102.812C47.313 102.934 47.4786 103.003 47.6513 103.003H65.8838C66.0564 103.003 66.2221 102.934 66.3442 102.812C66.4663 102.69 66.5349 102.524 66.5349 102.352V93.8864H83.4651V102.352C83.4651 102.524 83.5337 102.69 83.6558 102.812C83.7779 102.934 83.9436 103.003 84.1162 103.003H98.4418C98.5281 103.004 98.6137 102.988 98.6938 102.956C98.7739 102.924 98.8467 102.876 98.9082 102.815C98.9697 102.755 99.0184 102.682 99.0518 102.603C99.0851 102.523 99.1022 102.438 99.1022 102.352C99.1022 102.265 99.0851 102.18 99.0518 102.1C99.0184 102.021 98.9697 101.948 98.9082 101.888C98.8467 101.827 98.7739 101.779 98.6938 101.747C98.6137 101.715 98.5281 101.699 98.4418 101.7H84.7674V84.7702H101.698V102.352C101.697 102.444 101.716 102.536 101.754 102.621C101.791 102.706 101.847 102.782 101.916 102.843C101.986 102.905 102.067 102.951 102.156 102.979C102.245 103.006 102.338 103.014 102.43 103.003C102.588 102.983 102.734 102.905 102.839 102.785C102.944 102.665 103.001 102.511 103 102.352V84.119C103 83.9463 102.931 83.7807 102.809 83.6586C102.687 83.5365 102.521 83.4679 102.349 83.4678H93.8836V66.5377H102.349C102.521 66.5377 102.687 66.4691 102.809 66.3469C102.931 66.2248 103 66.0592 103 65.8865V47.654C103.003 47.5005 102.951 47.351 102.854 47.2319C102.757 47.1128 102.622 47.0316 102.471 47.0029C102.43 46.999 102.389 46.999 102.349 47.0029H84.1162C83.9436 47.0029 83.7779 47.0715 83.6558 47.1936C83.5337 47.3157 83.4651 47.4813 83.4651 47.654V56.1191H66.5349V47.654C66.5349 47.4813 66.4663 47.3157 66.3442 47.1936C66.2221 47.0715 66.0564 47.0029 65.8838 47.0029H47.6513C47.6107 46.999 47.5698 46.999 47.5292 47.0029ZM48.3024 48.3052H65.2326V65.2354H48.3024V48.3052ZM84.7674 48.3052H101.698V65.2354H84.7674V48.3052ZM54.6309 53.5145C54.0256 53.5145 53.5117 54.008 53.5117 54.6133V58.9069C53.5117 59.5122 54.0256 60.0261 54.6309 60.0261H58.9041C59.5094 60.0261 60.0233 59.5122 60.0233 58.9069V54.6133C60.0233 54.008 59.5094 53.5145 58.9041 53.5145H54.6309ZM91.0959 53.5145C90.4906 53.5145 89.9767 54.008 89.9767 54.6133V58.9069C89.9767 59.5122 90.4906 60.0261 91.0959 60.0261H95.3691C95.9744 60.0261 96.4883 59.5122 96.4883 58.9069V54.6133C96.4883 54.008 95.9744 53.5145 95.3691 53.5145H91.0959ZM54.814 54.8168H58.721V58.7238H54.814V54.8168ZM91.279 54.8168H95.186V58.7238H91.279V54.8168ZM66.5349 57.4214H83.4651V65.8865C83.4651 66.0592 83.5337 66.2248 83.6558 66.3469C83.7779 66.4691 83.9436 66.5377 84.1162 66.5377H92.5813V83.4678H84.1162C83.9436 83.4679 83.7779 83.5365 83.6558 83.6586C83.5337 83.7807 83.4651 83.9463 83.4651 84.119V92.5841H66.5349V84.119C66.5349 83.9463 66.4663 83.7807 66.3442 83.6586C66.2221 83.5365 66.0564 83.4679 65.8838 83.4678H57.4187V66.5377H65.8838C66.0564 66.5377 66.2221 66.4691 66.3442 66.3469C66.4663 66.2248 66.5349 66.0592 66.5349 65.8865V57.4214ZM48.3024 84.7702H65.2326V101.7H48.3024V84.7702ZM54.6309 89.9795C54.0256 89.9795 53.5117 90.473 53.5117 91.0783V95.3719C53.5117 95.9772 54.0256 96.4911 54.6309 96.4911H58.9041C59.5094 96.4911 60.0233 95.9772 60.0233 95.3719V91.0783C60.0233 90.473 59.5094 89.9795 58.9041 89.9795H54.6309ZM54.814 91.2818H58.721V95.1887H54.814V91.2818Z" fill="black"/>
<path d="M47.5292 47.0029C47.3784 47.0316 47.2426 47.1128 47.1458 47.2319C47.049 47.351 46.9974 47.5005 47.0001 47.654V65.8865C47.0001 66.0592 47.0687 66.2248 47.1908 66.3469C47.313 66.4691 47.4786 66.5377 47.6513 66.5377H56.1163V83.4678H47.6513C47.4786 83.4679 47.313 83.5365 47.1908 83.6586C47.0687 83.7807 47.0001 83.9463 47.0001 84.119V102.352C47.0001 102.524 47.0687 102.69 47.1908 102.812C47.313 102.934 47.4786 103.003 47.6513 103.003H65.8838C66.0564 103.003 66.2221 102.934 66.3442 102.812C66.4663 102.69 66.5349 102.524 66.5349 102.352V93.8864H83.4651V102.352C83.4651 102.524 83.5337 102.69 83.6558 102.812C83.7779 102.934 83.9436 103.003 84.1162 103.003H98.4418C98.5281 103.004 98.6137 102.988 98.6938 102.956C98.7739 102.924 98.8467 102.876 98.9082 102.815C98.9697 102.755 99.0184 102.682 99.0518 102.603C99.0851 102.523 99.1022 102.438 99.1022 102.352C99.1022 102.265 99.0851 102.18 99.0518 102.1C99.0184 102.021 98.9697 101.948 98.9082 101.888C98.8467 101.827 98.7739 101.779 98.6938 101.747C98.6137 101.715 98.5281 101.699 98.4418 101.7H84.7674V84.7702H101.698V102.352C101.697 102.444 101.716 102.536 101.754 102.621C101.791 102.706 101.847 102.782 101.916 102.843C101.986 102.905 102.067 102.951 102.156 102.979C102.245 103.006 102.338 103.014 102.43 103.003C102.588 102.983 102.734 102.905 102.839 102.785C102.944 102.665 103.001 102.511 103 102.352V84.119C103 83.9463 102.931 83.7807 102.809 83.6586C102.687 83.5365 102.521 83.4679 102.349 83.4678H93.8836V66.5377H102.349C102.521 66.5377 102.687 66.4691 102.809 66.3469C102.931 66.2248 103 66.0592 103 65.8865V47.654C103.003 47.5005 102.951 47.351 102.854 47.2319C102.757 47.1128 102.622 47.0316 102.471 47.0029C102.43 46.999 102.389 46.999 102.349 47.0029H84.1162C83.9436 47.0029 83.7779 47.0715 83.6558 47.1936C83.5337 47.3157 83.4651 47.4813 83.4651 47.654V56.1191H66.5349V47.654C66.5349 47.4813 66.4663 47.3157 66.3442 47.1936C66.2221 47.0715 66.0564 47.0029 65.8838 47.0029H47.6513C47.6107 46.999 47.5698 46.999 47.5292 47.0029ZM48.3024 48.3052H65.2326V65.2354H48.3024V48.3052ZM84.7674 48.3052H101.698V65.2354H84.7674V48.3052ZM54.6309 53.5145C54.0256 53.5145 53.5117 54.008 53.5117 54.6133V58.9069C53.5117 59.5122 54.0256 60.0261 54.6309 60.0261H58.9041C59.5094 60.0261 60.0233 59.5122 60.0233 58.9069V54.6133C60.0233 54.008 59.5094 53.5145 58.9041 53.5145H54.6309ZM91.0959 53.5145C90.4906 53.5145 89.9767 54.008 89.9767 54.6133V58.9069C89.9767 59.5122 90.4906 60.0261 91.0959 60.0261H95.3691C95.9744 60.0261 96.4883 59.5122 96.4883 58.9069V54.6133C96.4883 54.008 95.9744 53.5145 95.3691 53.5145H91.0959ZM54.814 54.8168H58.721V58.7238H54.814V54.8168ZM91.279 54.8168H95.186V58.7238H91.279V54.8168ZM66.5349 57.4214H83.4651V65.8865C83.4651 66.0592 83.5337 66.2248 83.6558 66.3469C83.7779 66.4691 83.9436 66.5377 84.1162 66.5377H92.5813V83.4678H84.1162C83.9436 83.4679 83.7779 83.5365 83.6558 83.6586C83.5337 83.7807 83.4651 83.9463 83.4651 84.119V92.5841H66.5349V84.119C66.5349 83.9463 66.4663 83.7807 66.3442 83.6586C66.2221 83.5365 66.0564 83.4679 65.8838 83.4678H57.4187V66.5377H65.8838C66.0564 66.5377 66.2221 66.4691 66.3442 66.3469C66.4663 66.2248 66.5349 66.0592 66.5349 65.8865V57.4214ZM48.3024 84.7702H65.2326V101.7H48.3024V84.7702ZM54.6309 89.9795C54.0256 89.9795 53.5117 90.473 53.5117 91.0783V95.3719C53.5117 95.9772 54.0256 96.4911 54.6309 96.4911H58.9041C59.5094 96.4911 60.0233 95.9772 60.0233 95.3719V91.0783C60.0233 90.473 59.5094 89.9795 58.9041 89.9795H54.6309ZM54.814 91.2818H58.721V95.1887H54.814V91.2818Z" stroke="black" stroke-width="0.4" mask="url(#path-6-outside-1)"/>
</svg>
