<svg width="150" height="150" viewBox="0 0 150 150" fill="none" xmlns="http://www.w3.org/2000/svg">
<circle cx="75" cy="75" r="74" stroke="#FFD600" stroke-width="2"/>
<line x1="76" y1="18" x2="76" y2="36.125" stroke="#FFD600" stroke-width="2"/>
<line x1="76" y1="115.875" x2="76" y2="134" stroke="#FFD600" stroke-width="2"/>
<line x1="117.396" y1="36.4075" x2="104.365" y2="49.0049" stroke="#FFD600" stroke-width="2"/>
<line x1="47.0257" y1="104.433" x2="33.9942" y2="117.031" stroke="#FFD600" stroke-width="2"/>
<line x1="17" y1="75" x2="35.125" y2="75" stroke="#FFD600" stroke-width="2"/>
<line x1="114.875" y1="75" x2="133" y2="75" stroke="#FFD600" stroke-width="2"/>
<line x1="30.2471" y1="37.5517" x2="43.6868" y2="49.7127" stroke="#FFD600" stroke-width="2"/>
<line x1="102.822" y1="103.221" x2="116.261" y2="115.382" stroke="#FFD600" stroke-width="2"/>
<path d="M75.0082 70.9299C74.0193 70.9299 73.0526 71.2232 72.2303 71.7726C71.4081 72.322 70.7672 73.1029 70.3888 74.0165C70.0103 74.9301 69.9113 75.9355 70.1043 76.9054C70.2972 77.8753 70.7734 78.7662 71.4726 79.4655C72.1719 80.1647 73.0628 80.6409 74.0327 80.8339C75.0026 81.0268 76.008 80.9278 76.9216 80.5493C77.8352 80.1709 78.6161 79.53 79.1655 78.7078C79.7149 77.8855 80.0082 76.9188 80.0082 75.9299C80.0082 74.6038 79.4814 73.3321 78.5437 72.3944C77.606 71.4567 76.3343 70.9299 75.0082 70.9299ZM75.0082 78.9299C74.4148 78.9299 73.8348 78.754 73.3415 78.4243C72.8481 78.0947 72.4636 77.6262 72.2365 77.078C72.0095 76.5298 71.9501 75.9266 72.0658 75.3447C72.1816 74.7627 72.4673 74.2282 72.8869 73.8086C73.3064 73.3891 73.841 73.1033 74.4229 72.9876C75.0049 72.8718 75.6081 72.9312 76.1562 73.1583C76.7044 73.3854 77.1729 73.7699 77.5026 74.2632C77.8322 74.7566 78.0082 75.3366 78.0082 75.9299C78.0055 76.7238 77.6883 77.4843 77.126 78.0448C76.5637 78.6052 75.8021 78.9199 75.0082 78.9199V78.9299Z" fill="black"/>
<path d="M68.2282 67.31L67.0082 65.74C65.4663 66.9568 64.2202 68.5072 63.3635 70.2747C62.5067 72.0422 62.0616 73.9808 62.0616 75.945C62.0616 77.9092 62.5067 79.8478 63.3635 81.6153C64.2202 83.3828 65.4663 84.9332 67.0082 86.15L68.2482 84.58C66.9435 83.5504 65.8891 82.2385 65.1642 80.743C64.4393 79.2474 64.0627 77.607 64.0627 75.945C64.0627 74.283 64.4393 72.6426 65.1642 71.147C65.8891 69.6515 66.9435 68.3396 68.2482 67.31H68.2282Z" fill="black"/>
<path d="M83.0081 65.74L81.8081 67.3C83.1183 68.3292 84.1775 69.6427 84.9059 71.1411C85.6342 72.6396 86.0127 74.2839 86.0127 75.95C86.0127 77.6161 85.6342 79.2604 84.9059 80.7589C84.1775 82.2573 83.1183 83.5707 81.8081 84.6L83.0481 86.17C84.5913 84.9504 85.8376 83.3965 86.6931 81.6254C87.5487 79.8543 87.9912 77.9122 87.9874 75.9453C87.9835 73.9784 87.5334 72.038 86.6709 70.2702C85.8084 68.5025 84.556 66.9535 83.0081 65.74Z" fill="black"/>
<path d="M61.8582 60.88L60.5382 59.37C58.1722 61.435 56.2757 63.9826 54.9762 66.8416C53.6767 69.7005 53.0044 72.8046 53.0044 75.945C53.0044 79.0854 53.6767 82.1895 54.9762 85.0484C56.2757 87.9074 58.1722 90.455 60.5382 92.52L61.8582 91.02C59.7067 89.1427 57.9821 86.8265 56.8004 84.2271C55.6186 81.6277 55.0072 78.8054 55.0072 75.95C55.0072 73.0946 55.6186 70.2723 56.8004 67.6729C57.9821 65.0735 59.7067 62.7573 61.8582 60.88Z" fill="black"/>
<path d="M89.4782 59.37L88.1582 60.87C90.3114 62.7473 92.0375 65.0641 93.2203 67.6644C94.403 70.2648 95.015 73.0883 95.015 75.945C95.015 78.8017 94.403 81.6252 93.2203 84.2256C92.0375 86.8259 90.3114 89.1427 88.1582 91.02L89.4782 92.53C91.8459 90.465 93.7439 87.9168 95.0444 85.0569C96.3449 82.197 97.0178 79.0917 97.0178 75.95C97.0178 72.8083 96.3449 69.703 95.0444 66.8431C93.7439 63.9832 91.8459 61.435 89.4782 59.37Z" fill="black"/>
<path d="M46.0082 75.92C46.0092 71.8833 46.8528 67.8913 48.4853 64.1994C50.1177 60.5075 52.5029 57.1971 55.4882 54.48L54.1382 53C50.9448 55.9054 48.3934 59.4458 46.6476 63.3944C44.9018 67.343 44 71.6127 44 75.93C44 80.2473 44.9018 84.517 46.6476 88.4656C48.3934 92.4142 50.9448 95.9546 54.1382 98.86L55.4882 97.38C52.5043 94.6575 50.1202 91.3433 48.488 87.6484C46.8558 83.9536 46.0113 79.9593 46.0082 75.92Z" fill="black"/>
<path d="M95.8782 53L94.5282 54.48C97.5154 57.1979 99.9019 60.5098 101.535 64.2036C103.168 67.8973 104.012 71.8914 104.012 75.93C104.012 79.9686 103.168 83.9627 101.535 87.6564C99.9019 91.3502 97.5154 94.6621 94.5282 97.38L95.8782 98.86C99.0716 95.9546 101.623 92.4142 103.369 88.4656C105.115 84.517 106.016 80.2473 106.016 75.93C106.016 71.6127 105.115 67.343 103.369 63.3944C101.623 59.4458 99.0716 55.9054 95.8782 53Z" fill="black"/>
</svg>
