<svg width="141" height="141" viewBox="0 0 141 141" fill="none" xmlns="http://www.w3.org/2000/svg">
<circle r="24" transform="matrix(-1 0 0 1 70 77)" stroke="#FFD600" stroke-width="2"/>
<path d="M2 19H0V1H15.2V3H2V19Z" fill="black"/>
<path d="M140.7 19H138.7V3H125.5V1H140.7V19Z" fill="black"/>
<path d="M140.7 140.4H125.5V138.4H138.7V122.4H140.7V140.4Z" fill="black"/>
<path d="M15.2 140.4H0V122.4H2V138.4H15.2V140.4Z" fill="black"/>
<path d="M6.70664 115L70 2.04569L133.293 115H6.70664Z" stroke="#FFD600" stroke-width="2"/>
<path d="M69.5 93C52.1 93 38.2 78.3 37.7 77.7L37 77L37.6 76.3C38.2 75.7 52.1 61 69.5 61C86.9 61 100.8 75.7 101.3 76.3L101.9 77L101.3 77.7C100.8 78.3 86.9 93 69.5 93ZM39.8 77C42.8 79.9 55 91 69.5 91C84 91 96.2 79.9 99.2 77C96.2 74.1 84 63 69.5 63C55 63 42.8 74.1 39.8 77Z" fill="black"/>
<path d="M69.5 92.7001C60.9 92.7001 53.8 85.7001 53.8 77C53.8 76.4 54.2 76 54.8 76C55.4 76 55.8 76.4 55.8 77C55.8 84.5 61.9 90.7001 69.5 90.7001C77.1 90.7001 83.2001 84.5 83.2001 77C83.2001 69.5 77 63.3 69.5 63.3C64.3 63.3 59.6001 66.2001 57.2001 70.9001C57.0001 71.4001 56.4 71.6 55.9 71.3C55.4 71.1 55.2 70.5 55.5 70C58.2 64.6 63.6 61.3 69.5 61.3C78.1 61.3 85.2001 68.3 85.2001 77C85.2001 85.7001 78.1 92.7001 69.5 92.7001Z" fill="black"/>
<path d="M69.5 83.5999C65.9 83.5999 62.9 80.6999 62.9 76.9999C62.9 73.2999 65.8 70.3999 69.5 70.3999C73.2 70.3999 76.1 73.2999 76.1 76.9999C76.1 77.5999 75.7 77.9999 75.1 77.9999C74.5 77.9999 74.1 77.5999 74.1 76.9999C74.1 74.4999 72.1 72.3999 69.5 72.3999C66.9 72.3999 64.9 74.3999 64.9 76.9999C64.9 79.5999 66.9 81.5999 69.5 81.5999C70.7 81.5999 71.8 81.0999 72.7 80.2999C73.1 79.8999 73.7 79.8999 74.1 80.2999C74.5 80.6999 74.5 81.2999 74.1 81.6999C72.8 82.8999 71.2 83.5999 69.5 83.5999Z" fill="#FFD600"/>
</svg>
