<svg width="92" height="92" viewBox="0 0 92 92" fill="none" xmlns="http://www.w3.org/2000/svg">
<path d="M0.95 91V91.05H1H91H91.05V91V1V0.95H91H1H0.95V1V91ZM2.45625 2.45625H89.5437V89.5437H2.45625V2.45625Z" fill="white" stroke="white" stroke-width="0.1"/>
<path d="M68.1984 69.4647V69.4147H68.1484H23.8516H23.8016V69.4647V70.871V70.921H23.8516H68.1484H68.1984V70.871V69.4647Z" fill="#FFD600" stroke="#FFD600" stroke-width="0.1"/>
<path d="M68.1984 53.3519V53.3019H68.1484H23.8516H23.8016V53.3519V54.7582V54.8082H23.8516H68.1484H68.1984V54.7582V53.3519Z" fill="#FFD600" stroke="#FFD600" stroke-width="0.1"/>
<path d="M68.1984 37.2418V37.1918H68.1484H23.8516H23.8016V37.2418V38.6481V38.6981H23.8516H68.1484H68.1984V38.6481V37.2418Z" fill="#FFD600" stroke="#FFD600" stroke-width="0.1"/>
<path d="M68.1984 21.129V21.079H68.1484H23.8516H23.8016V21.129V22.5353V22.5853H23.8516H68.1484H68.1984V22.5353V21.129Z" fill="#FFD600" stroke="#FFD600" stroke-width="0.1"/>
</svg>
