<svg width="124" height="124" viewBox="0 0 124 124" fill="none" xmlns="http://www.w3.org/2000/svg">
<path d="M34.4698 90.1066V90.3566H34.7198H90.1065H90.3565V90.1066V34.72V34.47H90.1065H34.7198H34.4698V34.72V90.1066ZM35.8353 35.8354H88.9911V88.9912H35.8353V35.8354Z" fill="white" stroke="white" stroke-width="0.5"/>
<path d="M76.2935 76.8538V76.6038H76.0435H48.7828H48.5328V76.8538V77.7192V77.9692H48.7828H76.0435H76.2935V77.7192V76.8538Z" fill="#FFD600" stroke="#FFD600" stroke-width="0.5"/>
<path d="M76.2935 66.9377V66.6877H76.0435H48.7828H48.5328V66.9377V67.8032V68.0532H48.7828H76.0435H76.2935V67.8032V66.9377Z" fill="#FFD600" stroke="#FFD600" stroke-width="0.5"/>
<path d="M76.2935 57.0234V56.7734H76.0435H48.7828H48.5328V57.0234V57.8889V58.1389H48.7828H76.0435H76.2935V57.8889V57.0234Z" fill="#FFD600" stroke="#FFD600" stroke-width="0.5"/>
<path d="M76.2935 47.1074V46.8574H76.0435H48.7828H48.5328V47.1074V47.9728V48.2228H48.7828H76.0435H76.2935V47.9728V47.1074Z" fill="#FFD600" stroke="#FFD600" stroke-width="0.5"/>
<circle cx="62" cy="62" r="61" stroke="#FFD600" stroke-width="2"/>
</svg>
