<svg width="149" height="70" viewBox="0 0 149 70" fill="none" xmlns="http://www.w3.org/2000/svg">
<rect x="15.75" y="0.75" width="117.5" height="68.5" stroke="#FFD600" stroke-width="1.5"/>
<path d="M0 53.9012H12.6663C23.8864 53.9012 31.0673 47.1468 31.0673 35.8055C31.0673 24.4642 23.8864 17.861 12.6663 17.861H0V53.9012ZM8.72678 46.3403V25.4219H12.3172C18.2016 25.4219 22.0413 28.9503 22.0413 35.8055C22.0413 42.7111 18.3512 46.3403 12.3172 46.3403H8.72678Z" fill="white"/>
<path d="M34.8226 35.6543C34.8226 46.2395 42.4024 54.5061 53.4729 54.5061C64.5435 54.5061 72.1233 46.2395 72.1233 35.6543C72.1233 25.3211 64.5435 17.2561 53.4729 17.2561C42.4024 17.2561 34.8226 25.3211 34.8226 35.6543ZM43.8486 35.6543C43.8486 29.7568 47.8379 25.3211 53.4729 25.3211C59.1079 25.3211 63.0973 29.7568 63.0973 35.6543C63.0973 41.8038 59.1079 46.4412 53.4729 46.4412C47.8379 46.4412 43.8486 41.8038 43.8486 35.6543Z" fill="white"/>
<path d="M75.7293 35.6543C75.7293 46.2395 83.3092 54.5061 94.3797 54.5061C105.45 54.5061 113.03 46.2395 113.03 35.6543C113.03 25.3211 105.45 17.2561 94.3797 17.2561C83.3092 17.2561 75.7293 25.3211 75.7293 35.6543ZM84.7553 35.6543C84.7553 29.7568 88.7447 25.3211 94.3797 25.3211C100.015 25.3211 104.004 29.7568 104.004 35.6543C104.004 41.8038 100.015 46.4412 94.3797 46.4412C88.7447 46.4412 84.7553 41.8038 84.7553 35.6543Z" fill="white"/>
<path d="M118.581 53.9012H127.308V39.7876H140.273V53.9012H149V17.861H140.273V32.2771H127.308V17.861H118.581V53.9012Z" fill="white"/>
</svg>
