<svg width="149" height="91" viewBox="0 0 149 91" fill="none" xmlns="http://www.w3.org/2000/svg">
<rect x="16.1951" y="0.75" width="116.61" height="89.3537" stroke="#FFD600" stroke-width="1.5"/>
<path d="M0 63.9012H12.6663C23.8864 63.9012 31.0673 57.1468 31.0673 45.8055C31.0673 34.4642 23.8864 27.861 12.6663 27.861H0V63.9012ZM8.72678 56.3403V35.4219H12.3172C18.2016 35.4219 22.0413 38.9503 22.0413 45.8055C22.0413 52.7111 18.3512 56.3403 12.3172 56.3403H8.72678Z" fill="white"/>
<path d="M34.8226 45.6543C34.8226 56.2395 42.4024 64.5061 53.4729 64.5061C64.5435 64.5061 72.1233 56.2395 72.1233 45.6543C72.1233 35.3211 64.5435 27.2561 53.4729 27.2561C42.4024 27.2561 34.8226 35.3211 34.8226 45.6543ZM43.8486 45.6543C43.8486 39.7568 47.8379 35.3211 53.4729 35.3211C59.1079 35.3211 63.0973 39.7568 63.0973 45.6543C63.0973 51.8038 59.1079 56.4412 53.4729 56.4412C47.8379 56.4412 43.8486 51.8038 43.8486 45.6543Z" fill="white"/>
<path d="M75.7293 45.6543C75.7293 56.2395 83.3092 64.5061 94.3797 64.5061C105.45 64.5061 113.03 56.2395 113.03 45.6543C113.03 35.3211 105.45 27.2561 94.3797 27.2561C83.3092 27.2561 75.7293 35.3211 75.7293 45.6543ZM84.7553 45.6543C84.7553 39.7568 88.7447 35.3211 94.3797 35.3211C100.015 35.3211 104.004 39.7568 104.004 45.6543C104.004 51.8038 100.015 56.4412 94.3797 56.4412C88.7447 56.4412 84.7553 51.8038 84.7553 45.6543Z" fill="white"/>
<path d="M118.581 63.9012H127.308V49.7876H140.273V63.9012H149V27.861H140.273V42.2771H127.308V27.861H118.581V63.9012Z" fill="white"/>
</svg>
