<svg width="69" height="68" viewBox="0 0 69 68" fill="none" xmlns="http://www.w3.org/2000/svg">
<path d="M68.1 53.1823C68.1 61.2796 61.5332 67.8464 53.4358 67.8464C45.3364 67.8464 38.7696 61.2796 38.7717 53.1823H68.1ZM68.1 53.1823C68.1 45.0829 61.5331 38.5182 53.4358 38.5182M68.1 53.1823L53.4358 38.5182M53.4358 38.5182C45.3364 38.5182 38.7717 45.085 38.7717 53.1823L53.4358 38.5182ZM53.4358 39.7629C60.8344 39.7629 66.8531 45.7817 66.8531 53.1802C66.8531 60.5787 60.8343 66.5995 53.4358 66.5995C46.0373 66.5995 40.0186 60.5808 40.0186 53.1823C40.0186 45.7837 46.0352 39.7629 53.4358 39.7629Z" fill="#FFD600" stroke="#FFD600" stroke-width="0.2"/>
<path d="M34.5707 0.929285L34.5 0.858586L34.4293 0.929285L15.3657 19.9908L15.295 20.0615L15.3657 20.1322L34.4293 39.1958L34.5 39.2665L34.5707 39.1958L53.6343 20.1322L53.705 20.0615L53.6343 19.9908L34.5707 0.929285ZM17.0581 20.0615L34.5 2.6217L51.9419 20.0636L34.5 37.5034L17.0581 20.0615Z" fill="#1C1C20" stroke="#353939" stroke-width="0.2"/>
<path d="M34.5707 11.0274L34.5 10.9567L34.4293 11.0274L25.4638 19.9929L25.3931 20.0636L25.4638 20.1343L34.4293 29.0976L34.5 29.1683L34.5707 29.0976L43.5361 20.1322L43.6068 20.0615L43.5361 19.9908L34.5707 11.0274ZM27.1563 20.0615L34.5 12.7198L41.8437 20.0636L34.5 27.4052L27.1563 20.0615Z" fill="#FFD600" stroke="#FFD600" stroke-width="0.2"/>
<path d="M30.2283 53.1823C30.2283 61.2796 23.6636 67.8464 15.5641 67.8464C7.4668 67.8464 0.9 61.2796 0.9 53.1823C0.9 45.0829 7.46678 38.5161 15.5641 38.5182L30.2283 53.1823ZM30.2283 53.1823C30.2283 45.0829 23.6615 38.5182 15.5642 38.5182L30.2283 53.1823ZM15.5641 39.7629C22.9626 39.7629 28.9814 45.7817 28.9814 53.1802C28.9814 60.5787 22.9647 66.5995 15.5641 66.5995C8.16352 66.5995 2.14688 60.5808 2.14688 53.1823C2.14688 45.7838 8.16562 39.7629 15.5641 39.7629Z" fill="#FFD600" stroke="#FFD600" stroke-width="0.2"/>
</svg>
