<svg width="67" height="67" viewBox="0 0 67 67" fill="none" xmlns="http://www.w3.org/2000/svg">
<path d="M33.708 15.4947C23.9817 15.4947 16.0725 23.4039 16.0725 33.1302C16.0725 42.8566 23.9817 50.7658 33.708 50.7658C43.4343 50.7658 51.3435 42.8566 51.3435 33.1302C51.3435 23.4039 43.4343 15.4947 33.708 15.4947ZM37.9653 18.7487C39.2032 19.9879 40.2686 21.7501 41.0708 23.8751C38.8256 23.2771 36.3322 22.934 33.708 22.934C31.0838 22.934 28.5904 23.2771 26.3452 23.8751C27.1474 21.7501 28.2128 19.9879 29.4507 18.7487C30.7233 17.4748 32.1738 16.7575 33.708 16.7575C35.2422 16.7575 36.6927 17.4748 37.9653 18.7487ZM41.5453 25.2929C42.2447 27.6196 42.6414 30.2908 42.6414 33.1302C42.6414 35.9697 42.2447 38.6409 41.5453 40.9676C39.2186 41.667 36.5474 42.0637 33.708 42.0637C30.8686 42.0637 28.1974 41.667 25.8707 40.9676C25.1713 38.6409 24.7746 35.9697 24.7746 33.1302C24.7746 30.2908 25.1713 27.6196 25.8707 25.2929C28.1974 24.5935 30.8686 24.1968 33.708 24.1968C36.5474 24.1968 39.2186 24.5935 41.5453 25.2929ZM24.8825 24.3154C21.9626 25.2956 19.5744 26.7417 18.0199 28.4944C19.5962 23.1897 23.7697 19.017 29.0651 17.4511C27.3193 19.0055 25.8633 21.3941 24.8825 24.3154ZM19.3265 28.8729C20.5657 27.635 22.3279 26.5696 24.4529 25.7674C23.8548 28.0126 23.5118 30.5061 23.5118 33.1302C23.5118 35.7544 23.8548 38.2479 24.4529 40.4931C22.3279 39.6909 20.5657 38.6255 19.3265 37.3876C18.0526 36.115 17.3352 34.6645 17.3352 33.1302C17.3352 31.596 18.0526 30.1455 19.3265 28.8729ZM29.0721 48.8184C23.7675 47.242 19.5947 43.0685 18.0289 37.7732C19.5832 39.5189 21.9719 40.975 24.8931 41.9558C25.8734 44.8757 27.3194 47.2638 29.0721 48.8184ZM29.4507 47.5118C28.2128 46.2726 27.1474 44.5103 26.3452 42.3854C28.5898 42.9834 31.0735 43.3265 33.708 43.3265C36.3427 43.3265 38.8266 42.9834 41.0713 42.3852C40.274 44.5102 39.2086 46.2725 37.9694 47.5117C36.6954 48.7856 35.2423 49.503 33.708 49.503C32.1738 49.503 30.7233 48.7857 29.4507 47.5118ZM42.5335 41.9451C45.4534 40.9649 47.8416 39.5188 49.3961 37.7661C47.8198 43.0708 43.6463 47.2435 38.3509 48.8094C40.0967 47.255 41.5527 44.8664 42.5335 41.9451ZM48.0895 37.3876C46.8503 38.6255 45.0881 39.6909 42.9631 40.4931C43.5612 38.2484 43.9042 35.7647 43.9042 33.1302C43.9042 30.4956 43.5611 28.0117 42.963 25.7669C45.088 26.5642 46.8503 27.6297 48.0895 28.8689C49.3634 30.1428 50.0808 31.596 50.0808 33.1302C50.0808 34.6645 49.3634 36.115 48.0895 37.3876ZM42.5228 24.3152C41.5424 21.3948 40.096 19.0064 38.343 17.4519C43.6355 19.0184 47.8071 23.198 49.3842 28.4908C47.8371 26.7385 45.4409 25.2851 42.5228 24.3152Z" fill="#1C1C20" stroke="#1C1C20" stroke-width="0.2"/>
<line x1="34.25" x2="34.25" y2="10.4688" stroke="#FFD600" stroke-width="1.5"/>
<line x1="34.25" y1="56.5312" x2="34.25" y2="67" stroke="#FFD600" stroke-width="1.5"/>
<line x1="58.1075" y1="10.7558" x2="50.5806" y2="18.0319" stroke="#FFD600" stroke-width="1.5"/>
<line x1="17.4621" y1="50.0466" x2="9.93523" y2="57.3227" stroke="#FFD600" stroke-width="1.5"/>
<line x1="-3.27835e-08" y1="32.75" x2="10.4688" y2="32.75" stroke="#FFD600" stroke-width="1.5"/>
<line x1="56.5312" y1="32.75" x2="67" y2="32.75" stroke="#FFD600" stroke-width="1.5"/>
<line x1="7.76762" y1="11.1638" x2="15.5302" y2="18.1879" stroke="#FFD600" stroke-width="1.5"/>
<line x1="49.6851" y1="49.0943" x2="57.4477" y2="56.1183" stroke="#FFD600" stroke-width="1.5"/>
</svg>
