<svg width="69" height="69" viewBox="0 0 69 69" fill="none" xmlns="http://www.w3.org/2000/svg">
<path d="M7.74287 40.9918C9.49352 40.9918 11.2445 40.3246 12.581 38.9882C15.254 36.3152 15.254 31.9828 12.581 29.3119C11.2445 27.9754 9.49352 27.3082 7.74287 27.3082C5.99222 27.3082 4.24121 27.9754 2.90473 29.3119C0.231782 31.9848 0.231733 36.3173 2.90473 38.9882C4.24121 40.3246 5.99222 40.9918 7.74287 40.9918ZM3.78733 30.1924C4.84476 29.135 6.24935 28.553 7.74496 28.553C9.24058 28.553 10.6452 29.135 11.7026 30.1924C12.76 31.2498 13.342 32.6544 13.342 34.15C13.342 35.6456 12.76 37.0502 11.7026 38.1077C10.643 39.163 9.23841 39.745 7.74287 39.745C6.24725 39.745 4.84267 39.163 3.78524 38.1056C1.60496 35.9253 1.60491 32.3748 3.78733 30.1924Z" fill="#1C1C20" stroke="#1C1C20" stroke-width="0.2"/>
<path d="M24.9057 24.9024L24.9057 24.9024C23.8483 25.9599 22.4437 26.5419 20.9481 26.5419C19.4525 26.5419 18.0479 25.9599 16.9904 24.9024L16.9904 24.9024C14.8081 22.7221 14.808 19.1717 16.9904 16.9893C18.0479 15.9318 19.4525 15.3499 20.9481 15.3499C22.4437 15.3499 23.8483 15.9318 24.9057 16.9893C27.0881 19.1717 27.0881 22.7221 24.9057 24.9024ZM25.7862 25.785C28.4592 23.1121 28.4592 18.7797 25.7862 16.1088C24.4497 14.7723 22.6987 14.1051 20.9481 14.1051C19.1974 14.1051 17.4464 14.7723 16.1099 16.1088C13.437 18.7817 13.4369 23.1141 16.1099 25.785C17.4464 27.1215 19.1974 27.7887 20.9481 27.7887C22.6987 27.7887 24.4497 27.1215 25.7862 25.785Z" fill="#1C1C20" stroke="#1C1C20" stroke-width="0.2"/>
<path d="M30.1936 3.78628L30.1935 3.78632C28.0112 5.9666 28.0111 9.51704 30.1936 11.6995C31.251 12.7569 32.6556 13.3389 34.1512 13.3389C35.6468 13.3389 37.0514 12.7569 38.1088 11.6995C38.1088 11.6995 38.1088 11.6995 38.1088 11.6995M30.1936 3.78628L38.1088 11.6995M30.1936 3.78628C31.251 2.72885 32.6556 2.14687 34.1512 2.14687C35.6468 2.14687 37.0514 2.72885 38.1088 3.78628C40.2891 5.96656 40.2892 9.51703 38.1088 11.6995M30.1936 3.78628L38.1088 11.6995M34.1512 0.9C32.4005 0.9 30.6495 1.5672 29.3131 2.90368C26.6401 5.57662 26.6401 9.90907 29.3131 12.58C30.6495 13.9164 32.4005 14.5836 34.1512 14.5836C35.9018 14.5836 37.6529 13.9164 38.9893 12.58C41.6623 9.90702 41.6623 5.57458 38.9893 2.90368C37.6529 1.5672 35.9018 0.9 34.1512 0.9Z" fill="#1C1C20" stroke="#1C1C20" stroke-width="0.2"/>
<path d="M17.34 43.7471L17.34 43.7471C18.3975 42.6896 19.8021 42.1077 21.2977 42.1077C22.7933 42.1077 24.1979 42.6896 25.2553 43.7471C26.3127 44.8045 26.8947 46.2091 26.8947 47.7047C26.8947 49.2003 26.3127 50.6049 25.2553 51.6623C24.1979 52.7198 22.7933 53.3018 21.2977 53.3018C19.8021 53.3018 18.3975 52.7198 17.34 51.6623C16.2826 50.6049 15.7006 49.2003 15.7006 47.7047C15.7006 46.209 16.2827 44.8024 17.34 43.7471ZM21.2977 54.5465C23.0483 54.5465 24.7993 53.8793 26.1358 52.5429C28.8088 49.8699 28.8088 45.5375 26.1358 42.8666C24.7993 41.5301 23.0483 40.8629 21.2977 40.8629C19.5472 40.8629 17.794 41.5279 16.4595 42.8645C13.7866 45.5375 13.7866 49.8699 16.4596 52.5408C17.7939 53.8772 19.547 54.5465 21.2977 54.5465Z" fill="#1C1C20" stroke="#1C1C20" stroke-width="0.2"/>
<path d="M51.6615 25.2521L51.6614 25.2522C50.604 26.3096 49.1994 26.8916 47.7038 26.8916C46.2082 26.8916 44.8036 26.3096 43.7462 25.2522C42.6887 24.1948 42.1068 22.7902 42.1068 21.2946C42.1068 19.7989 42.6887 18.3944 43.7462 17.3369C44.8036 16.2795 46.2082 15.6975 47.7038 15.6975C49.1994 15.6975 50.604 16.2795 51.6614 17.3369C52.7189 18.3944 53.3009 19.7989 53.3009 21.2946C53.3009 22.7902 52.7188 24.1969 51.6615 25.2521ZM47.7038 14.4527C45.9532 14.4527 44.2021 15.1199 42.8657 16.4564C40.1927 19.1294 40.1927 23.4618 42.8657 26.1327C44.2021 27.4692 45.9532 28.1364 47.7038 28.1364C49.4545 28.1364 51.2055 27.4692 52.542 26.1327C55.2149 23.4598 55.2149 19.1273 52.542 16.4564C51.2076 15.122 49.4545 14.4527 47.7038 14.4527Z" fill="#1C1C20" stroke="#1C1C20" stroke-width="0.2"/>
<path d="M30.8928 57.3L30.8927 57.3C28.7104 59.4803 28.7104 63.0307 30.8928 65.2131C31.9502 66.2706 33.3548 66.8525 34.8504 66.8525C36.346 66.8525 37.7506 66.2706 38.808 65.2132C38.808 65.2131 38.808 65.2131 38.808 65.2131M30.8928 57.3L38.808 65.2131M30.8928 57.3C31.9502 56.2425 33.3548 55.6605 34.8504 55.6605M30.8928 57.3L34.8504 55.6605M38.808 65.2131C40.9884 63.0307 40.9884 59.4824 38.808 57.3M38.808 65.2131V57.3M38.808 57.3C37.7506 56.2425 36.346 55.6605 34.8504 55.6605M38.808 57.3L34.8504 55.6605M34.8504 54.4137C33.0998 54.4137 31.3488 55.0809 30.0123 56.4174C27.3393 59.0903 27.3393 63.4227 30.0122 66.0936C31.3487 67.4322 33.0997 68.0994 34.8504 68.0994C36.6011 68.0994 38.3521 67.4322 39.6886 66.0957C42.3615 63.4228 42.3616 59.0903 39.6886 56.4194C38.3521 55.083 36.6011 54.4137 34.8504 54.4137Z" fill="#1C1C20" stroke="#1C1C20" stroke-width="0.2"/>
<path d="M43.2154 52.893L43.2155 52.893C44.5519 54.2273 46.3028 54.8966 48.0535 54.8966C49.8042 54.8966 51.5552 54.2294 52.8917 52.893C55.5646 50.22 55.5647 45.8876 52.8917 43.2167C51.5552 41.8802 49.8042 41.213 48.0535 41.213C46.3029 41.213 44.5519 41.8802 43.2154 43.2167C40.5424 45.8896 40.5424 50.2221 43.2154 52.893ZM44.098 44.0972L44.098 44.0972C45.1554 43.0397 46.56 42.4578 48.0556 42.4578C49.5513 42.4578 50.9558 43.0397 52.0133 44.0972C54.1957 46.2796 54.1956 49.83 52.0133 52.0103L52.0133 52.0103C50.9558 53.0678 49.5513 53.6498 48.0556 53.6498C46.56 53.6498 45.1554 53.0678 44.098 52.0103C41.9156 49.8279 41.9156 46.2775 44.098 44.0972Z" fill="#1C1C20" stroke="#1C1C20" stroke-width="0.2"/>
<path d="M66.0969 30.0111L66.0969 30.0111C64.7604 28.6746 63.0094 28.0074 61.2587 28.0074C59.5081 28.0074 57.7571 28.6746 56.4206 30.0111C53.7477 32.684 53.7476 37.0165 56.4206 39.6874C57.7571 41.0239 59.5081 41.6911 61.2587 41.6911C63.0094 41.6911 64.7604 41.0239 66.0969 39.6874C68.7678 37.0165 68.7677 32.6841 66.0969 30.0111ZM65.2164 38.8048L65.2164 38.8048C64.1568 39.8643 62.7522 40.4463 61.2587 40.4463C59.7631 40.4463 58.3585 39.8643 57.3011 38.8069C56.2437 37.7494 55.6617 36.3449 55.6617 34.8492C55.6617 33.3536 56.2437 31.949 57.3011 30.8916C58.3585 29.8342 59.7631 29.2522 61.2587 29.2522C62.7544 29.2522 64.1589 29.8342 65.2164 30.8916C67.3988 33.074 67.3987 36.6245 65.2164 38.8048Z" fill="#1C1C20" stroke="#1C1C20" stroke-width="0.2"/>
<path d="M34.5008 27.6578C32.7502 27.6578 30.9991 28.325 29.6627 29.6615C26.9897 32.3344 26.9897 36.6669 29.6627 39.3378C30.9991 40.6743 32.7502 41.3415 34.5008 41.3415C36.2515 41.3415 38.0025 40.6743 39.3389 39.3378C42.0119 36.6648 42.0119 32.3324 39.3389 29.6615C38.0025 28.325 36.2515 27.6578 34.5008 27.6578ZM38.4584 38.4573C37.401 39.5126 35.9964 40.0946 34.5008 40.0946C33.0052 40.0946 31.6006 39.5126 30.5432 38.4552C29.4879 37.3999 28.9058 35.9953 28.9058 34.4996C28.9058 33.004 29.4878 31.5994 30.5453 30.542C31.6006 29.4867 33.0052 28.9047 34.5008 28.9047C35.9964 28.9047 37.401 29.4867 38.4584 30.5441C39.5138 31.5994 40.0958 33.004 40.0958 34.4996C40.0958 35.9952 39.5138 37.3998 38.4584 38.4573Z" fill="#FFD600" stroke="#FFD600" stroke-width="0.2"/>
</svg>
