<svg width="69" height="57" viewBox="0 0 69 57" fill="none" xmlns="http://www.w3.org/2000/svg">
<path d="M0.9 56V56.1H1H68H68.1V56V1V0.9H68H1H0.9V1V56ZM2.14688 1.95938H66.8531V55.0406H2.14688V1.95938Z" fill="#1C1C20" stroke="#1C1C20" stroke-width="0.2"/>
<path d="M51.0883 39.9731V39.8731H50.9883H18.0117H17.9117V39.9731V41.02V41.12H18.0117H50.9883H51.0883V41.02V39.9731Z" fill="#FFD600" stroke="#FFD600" stroke-width="0.2"/>
<path d="M51.0883 27.98V27.88H50.9883H18.0117H17.9117V27.98V29.0269V29.1269H18.0117H50.9883H51.0883V29.0269V27.98Z" fill="#FFD600" stroke="#FFD600" stroke-width="0.2"/>
<path d="M51.0883 15.9849V15.8849H50.9883H18.0117H17.9117V15.9849V17.0317V17.1317H18.0117H50.9883H51.0883V17.0317V15.9849Z" fill="#FFD600" stroke="#FFD600" stroke-width="0.2"/>
</svg>
