<svg width="68" height="65" viewBox="0 0 68 65" fill="none" xmlns="http://www.w3.org/2000/svg">
<path d="M33.5184 18.1067V35.838H22.7456H22.6456V35.938V37.3877V37.4877H22.7456H35.0681H35.1681V37.3877V18.1067V18.0067H35.0681H33.6184H33.5184V18.1067Z" fill="#FFD600" stroke="#FFD600" stroke-width="0.2"/>
<path d="M58.41 12.5994L58.3393 12.6701L58.41 12.7408L61.8911 16.2219L56.3923 21.7207C53.9888 18.2977 50.8223 15.4796 47.1423 13.4894C43.4558 11.4957 39.3561 10.388 35.168 10.2536V2.5497H40.142H40.242V2.4497V1V0.9H40.142H28.5444H28.4444V1V2.4497V2.5497H28.5444H33.5183V10.3259C29.3366 10.4521 25.241 11.5486 21.555 13.5295C17.8755 15.507 14.7056 18.3112 12.2943 21.721L6.79527 16.2219L10.2763 12.7408L10.347 12.6701L10.2763 12.5994L9.26154 11.5846L9.19114 11.5142L9.12043 11.5843L0.929604 19.7026L0.858264 19.7733L0.929289 19.8444L1.94408 20.8592L2.01479 20.9299L2.0855 20.8592L5.56657 17.3781L11.3111 23.1226C8.14533 28.2341 6.78152 34.259 7.43843 40.237C8.09464 46.2084 10.7293 51.7878 14.9215 56.088L8.54023 62.4692L8.46952 62.5399L8.54023 62.6106L9.55503 63.6254L9.62574 63.6961L9.69645 63.6254L16.0798 57.242C21.0557 61.7977 27.5583 64.3257 34.3069 64.3257C41.0556 64.3257 47.5582 61.7977 52.534 57.242L58.9174 63.6254L58.9881 63.6961L59.0589 63.6254L60.0736 62.6106L60.1444 62.5399L60.0736 62.4692L53.6924 56.088C57.8846 51.7878 60.5192 46.2084 61.1754 40.237C61.8324 34.259 60.4685 28.2341 57.3028 23.1226L63.0473 17.3781L66.5284 20.8592L66.5967 20.9275L66.6673 20.8616L67.7546 19.8468L67.8306 19.7758L67.7568 19.7026L59.5659 11.5843L59.4952 11.5142L59.4248 11.5846L58.41 12.5994ZM34.3429 62.6574C29.3308 62.6573 24.4312 61.171 20.2638 58.3864C16.0962 55.6018 12.8481 51.6438 10.93 47.0131C9.01185 42.3825 8.50999 37.287 9.48783 32.371C10.4657 27.4551 12.8793 22.9395 16.4235 19.3954C19.9677 15.8512 24.4832 13.4376 29.3991 12.4597C34.3151 11.4819 39.4106 11.9837 44.0413 13.9018C48.672 15.8199 52.6299 19.0681 55.4145 23.2356C58.1991 27.4031 59.6854 32.3027 59.6855 37.3148C59.6664 44.0302 56.9903 50.4651 52.2418 55.2137C47.4932 59.9622 41.0583 62.6383 34.3429 62.6574Z" fill="#1C1C20" stroke="#1C1C20" stroke-width="0.2"/>
</svg>
