<svg width="20" height="21" viewBox="0 0 20 21" fill="none" xmlns="http://www.w3.org/2000/svg">
<path d="M9.99978 5.30957C7.02923 5.30957 4.61182 7.62188 4.61182 10.4633C4.61182 13.3047 7.02923 15.6158 9.99978 15.6158C12.9703 15.6158 15.3865 13.3047 15.3865 10.4633C15.3865 7.62188 12.9703 5.30957 9.99978 5.30957ZM9.99978 14.1473C7.87558 14.1473 6.14831 12.4939 6.14831 10.4633C6.14831 8.43143 7.87558 6.77926 9.99978 6.77926C12.1227 6.77926 13.8513 8.43143 13.8513 10.4633C13.85 12.4939 12.1227 14.1473 9.99978 14.1473Z" fill="#FFD600"/>
<path d="M15.9748 5.8077C16.3673 5.8077 16.6854 5.50338 16.6854 5.12797C16.6854 4.75257 16.3673 4.44824 15.9748 4.44824C15.5823 4.44824 15.2642 4.75257 15.2642 5.12797C15.2642 5.50338 15.5823 5.8077 15.9748 5.8077Z" fill="#FFD600"/>
<path d="M15.3649 0.896484H4.6338C2.07426 0.896484 0 2.88179 0 5.33004V15.5946C0 18.0428 2.07554 20.0281 4.6338 20.0281H15.3649C17.9245 20.0281 20 18.0428 20 15.5946V5.33127C20 2.88179 17.9245 0.896484 15.3649 0.896484ZM18.4635 15.5946C18.4635 17.2284 17.073 18.5585 15.3649 18.5585H4.6338C2.92574 18.5585 1.53649 17.2284 1.53649 15.5946V5.33127C1.53649 3.69746 2.92574 2.3674 4.6338 2.3674H15.3649C17.073 2.3674 18.4635 3.69624 18.4635 5.33127V15.5946Z" fill="#FFD600"/>
</svg>
